<?xml version="1.0" encoding="utf-8"?>
<!-- Generator: Adobe Illustrator 19.2.1, SVG Export Plug-In . SVG Version: 6.00 Build 0)  -->
<svg version="1.1" id="Layer_1" xmlns="http://www.w3.org/2000/svg" x="0px" y="0px"
     viewBox="0 0 73 60" style="enable-background:new 0 0 73 60;" xml:space="preserve">
<style type="text/css">
	.st0{fill-rule:evenodd;clip-rule:evenodd;fill:#FFFFFF;}
	.st1{fill:#FFFFFF;}
</style>
<g>
	<path class="st0" d="M1.6,38.4L1.6,38.4l6.8,0c1,2.6,3.3,3.9,6.9,3.9c4.5,0,6.7-1.3,6.7-4c0-0.8-0.3-1.5-1-2.1
		c-0.7-0.5-1.5-0.9-2.5-1.1l-5.8-1.1c-6.5-1.2-9.7-4.4-9.7-9.5c0-2.8,1-5.2,3.1-7.2c2.1-2,5.1-2.9,9.2-3c7.8-0.1,12.1,3.7,12.5,8.8
		h0l-6.6,0c-0.7-2.4-2.6-3.6-5.8-3.6c-3.9,0-5.8,1.2-5.8,3.6c0,1.7,1.6,2.8,4.7,3.5l6.9,1.4c5.4,1.1,8,4.2,8,9.2
		c0,3.5-1.4,6.2-4.1,7.9c-2.8,1.7-6,2.6-9.8,2.6c-3.3,0-6.2-0.7-8.7-2C4,44.5,1.7,41.8,1.6,38.4"/>
	<path class="st0" d="M64.1,8.9v5.5h-5c-1,0-1.8,0.2-2.6,0.4c-0.7,0.2-1.4,1-2.1,2.3c2.5,2.1,3.8,4.4,3.8,6.9c0,2.8-1.2,5.2-3.6,7
		c-2.4,1.9-5.5,2.8-9.4,2.8c-1.7,0-3.7-0.3-5.9-0.8c-1.5,0.7-2.2,1.7-2.2,3.1c0,0.8,0.4,1.5,1.1,2.2c0.7,0.7,1.8,1,3.3,1H51
		c3.3,0,5.8,0.8,7.7,2.5c1.9,1.7,2.8,3.8,2.8,6.3c0,3-1.4,5.5-4.2,7.5c-2.8,2-6.9,3-12.4,3c-10.3,0-15.5-2.9-15.5-8.7
		c0-2.9,1.6-5,4.7-6.5c-2-1.7-3-3.5-3-5.3c0-2.8,1.7-5,5.1-6.7c-3-1.8-4.4-4.3-4.4-7.4c0-2.7,1.1-4.9,3.3-6.8
		c2.2-1.9,5.5-2.8,9.9-2.8c2,0,4.1,0.2,6.2,0.7c1-4.1,3.5-6.1,7.7-6.1H64.1z M44.9,29.6c3.9,0,5.9-1.9,5.9-5.6
		c0-1.4-0.5-2.6-1.5-3.6c-1-1-2.4-1.5-4.3-1.5c-1.9,0-3.4,0.5-4.4,1.5c-1,1-1.6,2.3-1.6,3.8c0,1.6,0.5,2.8,1.6,3.8
		C41.6,29.1,43.1,29.6,44.9,29.6 M37,45.4c-1,1-1.6,1.9-1.6,2.8c0,1.5,0.9,2.7,2.6,3.8c1.7,1.1,4.5,1.7,8.3,1.7
		c5.6,0,8.3-1.4,8.3-4.3c0-1.1-0.5-1.9-1.5-2.4c-1-0.5-2.1-0.8-3.3-0.8h-7.7C40.7,46.2,39,45.9,37,45.4"/>
	<rect x="64.2" y="14.4" class="st1" width="7.2" height="33.4"/>
	<rect x="64.2" y="1.4" class="st1" width="7.2" height="7.5"/>
</g>
</svg>
